<?xml version="1.0" encoding="UTF-8"?><svg id="f0f733b9-bb17-468a-a780-beee7f60dbac" data-name="eac4cb91-cc69-44b0-9e29-7990fb12e827" xmlns="http://www.w3.org/2000/svg" viewBox="0 0 327.4 102.1"><defs><style>.b0ab3610-dc5a-4ce5-b1f0-b07cd4b7eb95{fill:none;}.ebd3569e-e627-45fe-a4f0-73bedc6d6fb2{fill:#c75b12;}</style></defs><rect class="b0ab3610-dc5a-4ce5-b1f0-b07cd4b7eb95" width="327.4" height="102.1"/><path class="ebd3569e-e627-45fe-a4f0-73bedc6d6fb2" d="M88.5,58.9c-2.3,7.3-7.7,13.5-20,13.5-14.2,0-21.7-9.9-21.7-21.8s8.3-22,22.1-22c12.3,0,18.2,6.7,19.7,13.6H81.5c-1.6-3.9-4.7-8-12.7-8-9.2,0-14.7,6.9-14.7,16.1s5.3,16.5,14.7,16.5c7.4,0,10.5-3.2,12.6-7.8Zm38.4-2.6c0,8.6-5.7,15.9-16.6,15.9-10.4,0-16.2-7.6-16.2-15.9,0-8.5,6-15.9,16.5-15.9C121.4,40.4,126.9,48.5,126.9,56.3Zm-26,0c0,5.5,3.4,10.6,9.6,10.6,6.5,0,9.6-4.9,9.6-10.5s-3.3-10.7-9.7-10.7-9.5,5-9.5,10.6Zm44,15.1-18.1-42h7.6l9.1,21.8c3.4,8.1,4.7,12,5.5,14.4h.1c.6-2.1,2.2-6,5.3-13.9l9.4-22.4h7.4l-18.4,42h-7.9Zm32-13.5c.3,5.3,3.9,9.2,9.6,9.2,4.4,0,6.8-1.7,8.3-4.4h6.6c-1.7,4.7-6,9.6-15.2,9.6-11.2,0-16-8-16-15.8,0-9,6-16,15.9-16,11.5,0,15.7,8.3,15.7,15.8V58ZM195,53.4c-.2-3.3-2-8-8.9-8-5.9,0-8.6,3.6-9.1,8Zm13.9-12.1h6.4c.1.9.2,4.1.2,6.6,1.9-4.5,6.1-7.5,12.1-7.4v6.2c-6.9-.1-12.1,3.7-12.1,12.5V71.4H209v-22C209,46.7,209,44,208.9,41.3Zm29.1,21c1,3.2,3.8,5.1,8.9,5.1,5.4,0,7.2-1.8,7.2-4.2s-1.5-3.8-8.7-4.7c-10.8-1.4-12.7-5.2-12.7-9,0-4.1,3.2-9.1,13-9.1,10.5,0,13.6,5.3,14,9.1h-6.6c-.4-1.7-1.6-4.3-7.7-4.3-5.1,0-6.2,2.2-6.2,3.7,0,2,1.3,3.2,7.9,4.1,11.6,1.6,13.6,5.2,13.6,9.7,0,5.4-4.1,9.6-14.2,9.6-8.6,0-14.1-3.7-15.1-10Zm34-4.4c.3,5.3,3.9,9.2,9.6,9.2,4.4,0,6.8-1.7,8.3-4.4h6.6c-1.7,4.7-6,9.6-15.2,9.6-11.2,0-16-8-16-15.8,0-9,6-16,15.9-16,11.5,0,15.7,8.3,15.7,15.8V58Zm18.2-4.5c-.2-3.3-2-8-8.9-8-5.9,0-8.6,3.6-9.1,8Z" transform="translate(0 0)"/><path class="ebd3569e-e627-45fe-a4f0-73bedc6d6fb2" d="M16.4,48.1a4,4,0,1,0,4-4,4,4,0,0,0-4,4" transform="translate(0 0)"/><rect class="ebd3569e-e627-45fe-a4f0-73bedc6d6fb2" x="22.3" y="46.6" width="27.6" height="3"/><path class="ebd3569e-e627-45fe-a4f0-73bedc6d6fb2" d="M69.1,83.6a4,4,0,1,0-4-4,4,4,0,0,0,4,4" transform="translate(0 0)"/><rect class="ebd3569e-e627-45fe-a4f0-73bedc6d6fb2" x="67.6" y="70.4" width="3" height="9.4"/><path class="ebd3569e-e627-45fe-a4f0-73bedc6d6fb2" d="M69.1,15.9a4,4,0,1,1-4,4h0a4,4,0,0,1,4-4" transform="translate(0 0)"/><rect class="ebd3569e-e627-45fe-a4f0-73bedc6d6fb2" x="67.6" y="19.8" width="3" height="11.3"/><path class="ebd3569e-e627-45fe-a4f0-73bedc6d6fb2" d="M46.5,24.8a4,4,0,1,1,5.7,5.7,4,4,0,0,1-5.7-5.7h0" transform="translate(0 0)"/><rect class="ebd3569e-e627-45fe-a4f0-73bedc6d6fb2" x="51.32" y="26" width="3" height="10.3" transform="translate(-6.56 46.47) rotate(-45)"/><path class="ebd3569e-e627-45fe-a4f0-73bedc6d6fb2" d="M44.1,72.9a4,4,0,1,0,5.7-5.7,4,4,0,0,0-5.7,5.7h0" transform="translate(0 0)"/><rect class="ebd3569e-e627-45fe-a4f0-73bedc6d6fb2" x="45.38" y="65.43" width="9.2" height="3" transform="translate(-32.69 54.94) rotate(-45)"/></svg>